<svg width="48" height="48" viewBox="0 0 48 48" fill="none" xmlns="http://www.w3.org/2000/svg">
  <rect width="48" height="48" rx="12" fill="#F55036"/>
  <path d="M14 16C14 14.8954 14.8954 14 16 14H22C23.1046 14 24 14.8954 24 16V22C24 23.1046 23.1046 24 22 24H16C14.8954 24 14 23.1046 14 22V16Z" fill="white"/>
  <path d="M24 16C24 14.8954 24.8954 14 26 14H32C33.1046 14 34 14.8954 34 16V22C34 23.1046 33.1046 24 32 24H26C24.8954 24 24 23.1046 24 22V16Z" fill="white" opacity="0.8"/>
  <path d="M14 26C14 24.8954 14.8954 24 16 24H22C23.1046 24 24 24.8954 24 26V32C24 33.1046 23.1046 34 22 34H16C14.8954 34 14 33.1046 14 32V26Z" fill="white" opacity="0.6"/>
  <path d="M24 26C24 24.8954 24.8954 24 26 24H32C33.1046 24 34 24.8954 34 26V32C34 33.1046 33.1046 34 32 34H26C24.8954 34 24 33.1046 24 32V26Z" fill="white" opacity="0.4"/>
</svg>
